M48
; DRILL file {KiCad 7.0.6} date Thu Jul 20 20:35:04 2023
; FORMAT={-:-/ absolute / inch / decimal}
; #@! TF.CreationDate,2023-07-20T20:35:04+02:00
; #@! TF.GenerationSoftware,Kicad,Pcbnew,7.0.6
; #@! TF.FileFunction,Plated,1,4,PTH
FMAT,2
INCH
; #@! TA.AperFunction,Plated,PTH,ViaDrill
T1C0.0079
; #@! TA.AperFunction,Plated,PTH,ViaDrill
T2C0.0157
; #@! TA.AperFunction,Plated,PTH,ComponentDrill
T3C0.0236
; #@! TA.AperFunction,Plated,PTH,ComponentDrill
T4C0.0295
; #@! TA.AperFunction,Plated,PTH,ComponentDrill
T5C0.0394
%
G90
G05
T1
X4.2913Y-4.4882
X4.2913Y-4.5704
X4.4193Y-3.0315
X4.4193Y-3.1102
X4.4193Y-3.189
X4.4193Y-3.2677
X4.4193Y-3.435
X4.4193Y-3.5236
X4.4783Y-3.6713
X4.5079Y-3.3465
X4.5374Y-3.6713
X4.5571Y-3.3465
X4.5768Y-3.0315
X4.5768Y-3.1102
X4.5768Y-3.189
X4.5768Y-3.2677
X4.7341Y-3.9175
X4.7343Y-3.7992
X4.7343Y-3.8386
X4.7343Y-3.878
X4.7343Y-3.9961
X4.7343Y-4.1339
X4.7484Y-3.8987
X4.7539Y-3.7795
X4.7539Y-3.8189
X4.7539Y-3.8583
X4.7539Y-3.937
X4.7539Y-3.9764
X4.7539Y-4.1535
X4.7933Y-2.9921
X4.7933Y-3.3268
X4.8425Y-2.9921
X4.8425Y-3.3268
X4.8917Y-3.3268
X4.9016Y-2.9921
X4.9213Y-4.3799
X4.9409Y-3.3268
X4.9409Y-3.7894
X4.9409Y-4.3996
X4.9508Y-2.9921
X4.9606Y-3.7697
X4.9606Y-4.3799
X4.9803Y-3.7894
X4.9803Y-4.3996
X5.0Y-3.7697
X5.0Y-4.3799
X5.0197Y-3.7894
X5.0197Y-4.3996
X5.0394Y-3.7697
X5.0591Y-3.7894
X5.0591Y-4.3799
X5.0689Y-3.9764
X5.0689Y-4.4587
X5.0787Y-3.7697
X5.0787Y-4.3996
X5.0886Y-3.9961
X5.0984Y-3.7894
X5.0984Y-4.3799
X5.1181Y-3.7697
X5.1378Y-4.3799
X5.1969Y-3.7697
X5.2165Y-3.7894
X5.2264Y-4.8819
X5.2264Y-4.9409
X5.2264Y-4.9902
X5.2362Y-3.7697
X5.2559Y-4.3799
X5.2756Y-3.7697
X5.2756Y-3.9961
X5.2953Y-3.7894
X5.2953Y-3.9764
X5.313Y-3.7697
X5.3346Y-3.937
X5.3346Y-3.9764
X5.3349Y-3.8384
X5.3366Y-3.7894
X5.3543Y-3.8583
X5.3543Y-3.9173
X5.3543Y-3.9567
X5.3543Y-3.9961
X5.3543Y-4.0354
X5.3661Y-3.7663
X5.4331Y-3.1102
X5.4823Y-3.7697
X5.5118Y-3.1102
X5.561Y-4.9311
X5.561Y-4.9803
X5.561Y-5.0295
X5.7911Y-5.0259
X5.8169Y-4.9508
X5.8169Y-5.0492
X5.8182Y-4.9987
X5.8268Y-4.2126
X5.9744Y-4.2323
X6.063Y-3.6319
X6.063Y-3.6713
X6.063Y-3.8091
X6.063Y-3.8484
X6.063Y-3.9272
X6.063Y-3.9665
X6.063Y-4.0059
X6.063Y-4.0453
X6.063Y-4.0846
X6.063Y-4.124
X6.063Y-4.1634
X6.063Y-4.2028
X6.081Y-4.1831
X6.0827Y-3.6122
X6.0827Y-3.6516
X6.0827Y-3.7894
X6.0827Y-3.8287
X6.0827Y-3.9075
X6.0827Y-3.9469
X6.0827Y-3.9862
X6.0827Y-4.0256
X6.0827Y-4.065
X6.0827Y-4.1043
X6.0827Y-4.1437
X6.1516Y-4.9409
X6.1516Y-4.9705
X6.1516Y-5.0
X6.1516Y-5.0295
T2
X3.9862Y-4.6949
X3.9961Y-4.3504
X4.1339Y-5.0787
X4.2126Y-3.8583
X4.2126Y-3.937
X4.2126Y-4.1339
X4.2126Y-4.2126
X4.2888Y-5.0813
X4.2913Y-4.4094
X4.2913Y-4.6457
X4.3701Y-5.1181
X4.4685Y-2.9823
X4.4685Y-3.3169
X4.4882Y-5.1575
X4.6063Y-4.0945
X4.6063Y-4.311
X4.6063Y-5.0787
X4.6358Y-3.4154
X4.6358Y-3.5925
X4.685Y-4.0945
X4.685Y-4.311
X4.6949Y-3.3169
X4.7047Y-2.9823
X4.8425Y-3.5039
X4.8425Y-3.5827
X4.8425Y-4.9213
X4.8425Y-5.0787
X4.8524Y-4.7638
X4.8819Y-4.9606
X4.9114Y-4.7638
X4.9803Y-3.5039
X4.9803Y-3.5827
X5.0295Y-3.0709
X5.0295Y-3.248
X5.0591Y-3.3465
X5.0591Y-3.4252
X5.1181Y-3.2972
X5.1969Y-3.2972
X5.2559Y-3.3465
X5.2559Y-3.4154
X5.315Y-3.5039
X5.315Y-4.8031
X5.3937Y-3.4646
X5.4134Y-4.4488
X5.4134Y-4.5276
X5.4724Y-4.8031
X5.502Y-4.1929
X5.5512Y-3.7402
X5.5906Y-3.1102
X5.6299Y-3.7402
X5.6299Y-3.878
X5.6693Y-3.1102
X5.8268Y-3.5433
X5.8268Y-3.7008
X5.8563Y-4.311
X5.9055Y-4.8031
X5.9843Y-3.8681
X6.0236Y-4.3701
X6.0236Y-4.4094
X6.0335Y-4.6752
X6.063Y-4.311
X6.063Y-4.4094
X6.063Y-4.5276
X6.063Y-4.8031
X6.3386Y-4.9606
T4
X6.9094Y-5.0374
X6.9882Y-5.0374
T5
X4.0461Y-3.0071
X4.0461Y-3.1071
X4.0461Y-3.2071
X4.0461Y-3.3071
X4.0469Y-3.4118
X4.0469Y-3.5118
X4.1461Y-3.0071
X4.1461Y-3.1071
X4.1461Y-3.2071
X4.1461Y-3.3071
X4.1469Y-3.4118
X4.1469Y-3.5118
T3
G00X3.9469Y-3.8654
M15
G01X3.9232Y-3.8654
M16
G05
G00X3.9469Y-4.2055
M15
G01X3.9232Y-4.2055
M16
G05
G00X4.1213Y-3.8654
M15
G01X4.078Y-3.8654
M16
G05
G00X4.1213Y-4.2055
M15
G01X4.078Y-4.2055
M16
G05
T0
M30
