%TF.GenerationSoftware,KiCad,Pcbnew,7.0.6*%
%TF.CreationDate,2023-07-20T20:35:06+02:00*%
%TF.ProjectId,black_scope,626c6163-6b5f-4736-936f-70652e6b6963,rev?*%
%TF.SameCoordinates,Original*%
%TF.FileFunction,Drillmap*%
%TF.FilePolarity,Positive*%
%FSLAX45Y45*%
G04 Gerber Fmt 4.5, Leading zero omitted, Abs format (unit mm)*
G04 Created by KiCad (PCBNEW 7.0.6) date 2023-07-20 20:35:06*
%MOMM*%
%LPD*%
G01*
G04 APERTURE LIST*
%ADD10C,0.100000*%
%ADD11C,0.200000*%
%ADD12C,0.065000*%
G04 APERTURE END LIST*
D10*
X18500000Y-7825000D02*
X18200000Y-7825000D01*
X18500000Y-13025000D02*
G75*
G03*
X18500000Y-13025000I-50000J0D01*
G01*
X18500000Y-7475000D02*
G75*
G03*
X18500000Y-7475000I-50000J0D01*
G01*
X18700000Y-13075000D02*
X18700000Y-12875000D01*
X18500000Y-13275000D02*
G75*
G03*
X18700000Y-13075000I0J200000D01*
G01*
X18000000Y-12475000D02*
G75*
G03*
X18200000Y-12675000I200000J0D01*
G01*
X10100000Y-13025000D02*
G75*
G03*
X10100000Y-13025000I-50000J0D01*
G01*
X10000000Y-7225000D02*
G75*
G03*
X9800000Y-7425000I0J-200000D01*
G01*
X9800000Y-13075000D02*
G75*
G03*
X10000000Y-13275000I200000J0D01*
G01*
X10000000Y-13275000D02*
X18500000Y-13275000D01*
X18500000Y-12675000D02*
X18200000Y-12675000D01*
X18700000Y-12875000D02*
G75*
G03*
X18500000Y-12675000I-200000J0D01*
G01*
X10100000Y-7475000D02*
G75*
G03*
X10100000Y-7475000I-50000J0D01*
G01*
X9800000Y-7425000D02*
X9800000Y-13075000D01*
X18500000Y-7825000D02*
G75*
G03*
X18700000Y-7625000I0J200000D01*
G01*
X18700000Y-7425000D02*
G75*
G03*
X18500000Y-7225000I-200000J0D01*
G01*
X18700000Y-7425000D02*
X18700000Y-7625000D01*
X18000000Y-12475000D02*
X18000000Y-8025000D01*
X10000000Y-7225000D02*
X18500000Y-7225000D01*
X18200000Y-7825000D02*
G75*
G03*
X18000000Y-8025000I0J-200000D01*
G01*
D11*
D12*
X10327500Y-9928500D02*
X10392500Y-9993500D01*
X10392500Y-9928500D02*
X10327500Y-9993500D01*
X10327500Y-10506500D02*
X10392500Y-10571500D01*
X10392500Y-10506500D02*
X10327500Y-10571500D01*
D11*
X10055777Y-13591484D02*
X10055777Y-13391484D01*
X10055777Y-13391484D02*
X10103396Y-13391484D01*
X10103396Y-13391484D02*
X10131967Y-13401008D01*
X10131967Y-13401008D02*
X10151015Y-13420055D01*
X10151015Y-13420055D02*
X10160539Y-13439103D01*
X10160539Y-13439103D02*
X10170063Y-13477198D01*
X10170063Y-13477198D02*
X10170063Y-13505769D01*
X10170063Y-13505769D02*
X10160539Y-13543865D01*
X10160539Y-13543865D02*
X10151015Y-13562912D01*
X10151015Y-13562912D02*
X10131967Y-13581960D01*
X10131967Y-13581960D02*
X10103396Y-13591484D01*
X10103396Y-13591484D02*
X10055777Y-13591484D01*
X10255777Y-13591484D02*
X10255777Y-13458150D01*
X10255777Y-13496246D02*
X10265301Y-13477198D01*
X10265301Y-13477198D02*
X10274824Y-13467674D01*
X10274824Y-13467674D02*
X10293872Y-13458150D01*
X10293872Y-13458150D02*
X10312920Y-13458150D01*
X10379586Y-13591484D02*
X10379586Y-13458150D01*
X10379586Y-13391484D02*
X10370063Y-13401008D01*
X10370063Y-13401008D02*
X10379586Y-13410531D01*
X10379586Y-13410531D02*
X10389110Y-13401008D01*
X10389110Y-13401008D02*
X10379586Y-13391484D01*
X10379586Y-13391484D02*
X10379586Y-13410531D01*
X10503396Y-13591484D02*
X10484348Y-13581960D01*
X10484348Y-13581960D02*
X10474824Y-13562912D01*
X10474824Y-13562912D02*
X10474824Y-13391484D01*
X10608158Y-13591484D02*
X10589110Y-13581960D01*
X10589110Y-13581960D02*
X10579586Y-13562912D01*
X10579586Y-13562912D02*
X10579586Y-13391484D01*
X10836729Y-13591484D02*
X10836729Y-13391484D01*
X10836729Y-13391484D02*
X10903396Y-13534341D01*
X10903396Y-13534341D02*
X10970063Y-13391484D01*
X10970063Y-13391484D02*
X10970063Y-13591484D01*
X11151015Y-13591484D02*
X11151015Y-13486722D01*
X11151015Y-13486722D02*
X11141491Y-13467674D01*
X11141491Y-13467674D02*
X11122444Y-13458150D01*
X11122444Y-13458150D02*
X11084348Y-13458150D01*
X11084348Y-13458150D02*
X11065301Y-13467674D01*
X11151015Y-13581960D02*
X11131967Y-13591484D01*
X11131967Y-13591484D02*
X11084348Y-13591484D01*
X11084348Y-13591484D02*
X11065301Y-13581960D01*
X11065301Y-13581960D02*
X11055777Y-13562912D01*
X11055777Y-13562912D02*
X11055777Y-13543865D01*
X11055777Y-13543865D02*
X11065301Y-13524817D01*
X11065301Y-13524817D02*
X11084348Y-13515293D01*
X11084348Y-13515293D02*
X11131967Y-13515293D01*
X11131967Y-13515293D02*
X11151015Y-13505769D01*
X11246253Y-13458150D02*
X11246253Y-13658150D01*
X11246253Y-13467674D02*
X11265301Y-13458150D01*
X11265301Y-13458150D02*
X11303396Y-13458150D01*
X11303396Y-13458150D02*
X11322443Y-13467674D01*
X11322443Y-13467674D02*
X11331967Y-13477198D01*
X11331967Y-13477198D02*
X11341491Y-13496246D01*
X11341491Y-13496246D02*
X11341491Y-13553388D01*
X11341491Y-13553388D02*
X11331967Y-13572436D01*
X11331967Y-13572436D02*
X11322443Y-13581960D01*
X11322443Y-13581960D02*
X11303396Y-13591484D01*
X11303396Y-13591484D02*
X11265301Y-13591484D01*
X11265301Y-13591484D02*
X11246253Y-13581960D01*
X11427205Y-13572436D02*
X11436729Y-13581960D01*
X11436729Y-13581960D02*
X11427205Y-13591484D01*
X11427205Y-13591484D02*
X11417682Y-13581960D01*
X11417682Y-13581960D02*
X11427205Y-13572436D01*
X11427205Y-13572436D02*
X11427205Y-13591484D01*
X11427205Y-13467674D02*
X11436729Y-13477198D01*
X11436729Y-13477198D02*
X11427205Y-13486722D01*
X11427205Y-13486722D02*
X11417682Y-13477198D01*
X11417682Y-13477198D02*
X11427205Y-13467674D01*
X11427205Y-13467674D02*
X11427205Y-13486722D01*
D12*
X9730000Y-13887500D02*
X9795000Y-13952500D01*
X9795000Y-13887500D02*
X9730000Y-13952500D01*
D11*
X10093872Y-13811484D02*
X10112920Y-13811484D01*
X10112920Y-13811484D02*
X10131967Y-13821008D01*
X10131967Y-13821008D02*
X10141491Y-13830531D01*
X10141491Y-13830531D02*
X10151015Y-13849579D01*
X10151015Y-13849579D02*
X10160539Y-13887674D01*
X10160539Y-13887674D02*
X10160539Y-13935293D01*
X10160539Y-13935293D02*
X10151015Y-13973388D01*
X10151015Y-13973388D02*
X10141491Y-13992436D01*
X10141491Y-13992436D02*
X10131967Y-14001960D01*
X10131967Y-14001960D02*
X10112920Y-14011484D01*
X10112920Y-14011484D02*
X10093872Y-14011484D01*
X10093872Y-14011484D02*
X10074824Y-14001960D01*
X10074824Y-14001960D02*
X10065301Y-13992436D01*
X10065301Y-13992436D02*
X10055777Y-13973388D01*
X10055777Y-13973388D02*
X10046253Y-13935293D01*
X10046253Y-13935293D02*
X10046253Y-13887674D01*
X10046253Y-13887674D02*
X10055777Y-13849579D01*
X10055777Y-13849579D02*
X10065301Y-13830531D01*
X10065301Y-13830531D02*
X10074824Y-13821008D01*
X10074824Y-13821008D02*
X10093872Y-13811484D01*
X10246253Y-13992436D02*
X10255777Y-14001960D01*
X10255777Y-14001960D02*
X10246253Y-14011484D01*
X10246253Y-14011484D02*
X10236729Y-14001960D01*
X10236729Y-14001960D02*
X10246253Y-13992436D01*
X10246253Y-13992436D02*
X10246253Y-14011484D01*
X10427205Y-13811484D02*
X10389110Y-13811484D01*
X10389110Y-13811484D02*
X10370063Y-13821008D01*
X10370063Y-13821008D02*
X10360539Y-13830531D01*
X10360539Y-13830531D02*
X10341491Y-13859103D01*
X10341491Y-13859103D02*
X10331967Y-13897198D01*
X10331967Y-13897198D02*
X10331967Y-13973388D01*
X10331967Y-13973388D02*
X10341491Y-13992436D01*
X10341491Y-13992436D02*
X10351015Y-14001960D01*
X10351015Y-14001960D02*
X10370063Y-14011484D01*
X10370063Y-14011484D02*
X10408158Y-14011484D01*
X10408158Y-14011484D02*
X10427205Y-14001960D01*
X10427205Y-14001960D02*
X10436729Y-13992436D01*
X10436729Y-13992436D02*
X10446253Y-13973388D01*
X10446253Y-13973388D02*
X10446253Y-13925769D01*
X10446253Y-13925769D02*
X10436729Y-13906722D01*
X10436729Y-13906722D02*
X10427205Y-13897198D01*
X10427205Y-13897198D02*
X10408158Y-13887674D01*
X10408158Y-13887674D02*
X10370063Y-13887674D01*
X10370063Y-13887674D02*
X10351015Y-13897198D01*
X10351015Y-13897198D02*
X10341491Y-13906722D01*
X10341491Y-13906722D02*
X10331967Y-13925769D01*
X10627205Y-13811484D02*
X10531967Y-13811484D01*
X10531967Y-13811484D02*
X10522444Y-13906722D01*
X10522444Y-13906722D02*
X10531967Y-13897198D01*
X10531967Y-13897198D02*
X10551015Y-13887674D01*
X10551015Y-13887674D02*
X10598634Y-13887674D01*
X10598634Y-13887674D02*
X10617682Y-13897198D01*
X10617682Y-13897198D02*
X10627205Y-13906722D01*
X10627205Y-13906722D02*
X10636729Y-13925769D01*
X10636729Y-13925769D02*
X10636729Y-13973388D01*
X10636729Y-13973388D02*
X10627205Y-13992436D01*
X10627205Y-13992436D02*
X10617682Y-14001960D01*
X10617682Y-14001960D02*
X10598634Y-14011484D01*
X10598634Y-14011484D02*
X10551015Y-14011484D01*
X10551015Y-14011484D02*
X10531967Y-14001960D01*
X10531967Y-14001960D02*
X10522444Y-13992436D01*
X10760539Y-13811484D02*
X10779586Y-13811484D01*
X10779586Y-13811484D02*
X10798634Y-13821008D01*
X10798634Y-13821008D02*
X10808158Y-13830531D01*
X10808158Y-13830531D02*
X10817682Y-13849579D01*
X10817682Y-13849579D02*
X10827205Y-13887674D01*
X10827205Y-13887674D02*
X10827205Y-13935293D01*
X10827205Y-13935293D02*
X10817682Y-13973388D01*
X10817682Y-13973388D02*
X10808158Y-13992436D01*
X10808158Y-13992436D02*
X10798634Y-14001960D01*
X10798634Y-14001960D02*
X10779586Y-14011484D01*
X10779586Y-14011484D02*
X10760539Y-14011484D01*
X10760539Y-14011484D02*
X10741491Y-14001960D01*
X10741491Y-14001960D02*
X10731967Y-13992436D01*
X10731967Y-13992436D02*
X10722444Y-13973388D01*
X10722444Y-13973388D02*
X10712920Y-13935293D01*
X10712920Y-13935293D02*
X10712920Y-13887674D01*
X10712920Y-13887674D02*
X10722444Y-13849579D01*
X10722444Y-13849579D02*
X10731967Y-13830531D01*
X10731967Y-13830531D02*
X10741491Y-13821008D01*
X10741491Y-13821008D02*
X10760539Y-13811484D01*
X10912920Y-14011484D02*
X10912920Y-13878150D01*
X10912920Y-13897198D02*
X10922444Y-13887674D01*
X10922444Y-13887674D02*
X10941491Y-13878150D01*
X10941491Y-13878150D02*
X10970063Y-13878150D01*
X10970063Y-13878150D02*
X10989110Y-13887674D01*
X10989110Y-13887674D02*
X10998634Y-13906722D01*
X10998634Y-13906722D02*
X10998634Y-14011484D01*
X10998634Y-13906722D02*
X11008158Y-13887674D01*
X11008158Y-13887674D02*
X11027205Y-13878150D01*
X11027205Y-13878150D02*
X11055777Y-13878150D01*
X11055777Y-13878150D02*
X11074825Y-13887674D01*
X11074825Y-13887674D02*
X11084348Y-13906722D01*
X11084348Y-13906722D02*
X11084348Y-14011484D01*
X11179586Y-14011484D02*
X11179586Y-13878150D01*
X11179586Y-13897198D02*
X11189110Y-13887674D01*
X11189110Y-13887674D02*
X11208158Y-13878150D01*
X11208158Y-13878150D02*
X11236729Y-13878150D01*
X11236729Y-13878150D02*
X11255777Y-13887674D01*
X11255777Y-13887674D02*
X11265301Y-13906722D01*
X11265301Y-13906722D02*
X11265301Y-14011484D01*
X11265301Y-13906722D02*
X11274824Y-13887674D01*
X11274824Y-13887674D02*
X11293872Y-13878150D01*
X11293872Y-13878150D02*
X11322443Y-13878150D01*
X11322443Y-13878150D02*
X11341491Y-13887674D01*
X11341491Y-13887674D02*
X11351015Y-13906722D01*
X11351015Y-13906722D02*
X11351015Y-14011484D01*
X11741491Y-13801960D02*
X11570063Y-14059103D01*
X11998634Y-13811484D02*
X12017682Y-13811484D01*
X12017682Y-13811484D02*
X12036729Y-13821008D01*
X12036729Y-13821008D02*
X12046253Y-13830531D01*
X12046253Y-13830531D02*
X12055777Y-13849579D01*
X12055777Y-13849579D02*
X12065301Y-13887674D01*
X12065301Y-13887674D02*
X12065301Y-13935293D01*
X12065301Y-13935293D02*
X12055777Y-13973388D01*
X12055777Y-13973388D02*
X12046253Y-13992436D01*
X12046253Y-13992436D02*
X12036729Y-14001960D01*
X12036729Y-14001960D02*
X12017682Y-14011484D01*
X12017682Y-14011484D02*
X11998634Y-14011484D01*
X11998634Y-14011484D02*
X11979586Y-14001960D01*
X11979586Y-14001960D02*
X11970063Y-13992436D01*
X11970063Y-13992436D02*
X11960539Y-13973388D01*
X11960539Y-13973388D02*
X11951015Y-13935293D01*
X11951015Y-13935293D02*
X11951015Y-13887674D01*
X11951015Y-13887674D02*
X11960539Y-13849579D01*
X11960539Y-13849579D02*
X11970063Y-13830531D01*
X11970063Y-13830531D02*
X11979586Y-13821008D01*
X11979586Y-13821008D02*
X11998634Y-13811484D01*
X12151015Y-13992436D02*
X12160539Y-14001960D01*
X12160539Y-14001960D02*
X12151015Y-14011484D01*
X12151015Y-14011484D02*
X12141491Y-14001960D01*
X12141491Y-14001960D02*
X12151015Y-13992436D01*
X12151015Y-13992436D02*
X12151015Y-14011484D01*
X12284348Y-13811484D02*
X12303396Y-13811484D01*
X12303396Y-13811484D02*
X12322444Y-13821008D01*
X12322444Y-13821008D02*
X12331967Y-13830531D01*
X12331967Y-13830531D02*
X12341491Y-13849579D01*
X12341491Y-13849579D02*
X12351015Y-13887674D01*
X12351015Y-13887674D02*
X12351015Y-13935293D01*
X12351015Y-13935293D02*
X12341491Y-13973388D01*
X12341491Y-13973388D02*
X12331967Y-13992436D01*
X12331967Y-13992436D02*
X12322444Y-14001960D01*
X12322444Y-14001960D02*
X12303396Y-14011484D01*
X12303396Y-14011484D02*
X12284348Y-14011484D01*
X12284348Y-14011484D02*
X12265301Y-14001960D01*
X12265301Y-14001960D02*
X12255777Y-13992436D01*
X12255777Y-13992436D02*
X12246253Y-13973388D01*
X12246253Y-13973388D02*
X12236729Y-13935293D01*
X12236729Y-13935293D02*
X12236729Y-13887674D01*
X12236729Y-13887674D02*
X12246253Y-13849579D01*
X12246253Y-13849579D02*
X12255777Y-13830531D01*
X12255777Y-13830531D02*
X12265301Y-13821008D01*
X12265301Y-13821008D02*
X12284348Y-13811484D01*
X12427206Y-13830531D02*
X12436729Y-13821008D01*
X12436729Y-13821008D02*
X12455777Y-13811484D01*
X12455777Y-13811484D02*
X12503396Y-13811484D01*
X12503396Y-13811484D02*
X12522444Y-13821008D01*
X12522444Y-13821008D02*
X12531967Y-13830531D01*
X12531967Y-13830531D02*
X12541491Y-13849579D01*
X12541491Y-13849579D02*
X12541491Y-13868627D01*
X12541491Y-13868627D02*
X12531967Y-13897198D01*
X12531967Y-13897198D02*
X12417682Y-14011484D01*
X12417682Y-14011484D02*
X12541491Y-14011484D01*
X12722444Y-13811484D02*
X12627206Y-13811484D01*
X12627206Y-13811484D02*
X12617682Y-13906722D01*
X12617682Y-13906722D02*
X12627206Y-13897198D01*
X12627206Y-13897198D02*
X12646253Y-13887674D01*
X12646253Y-13887674D02*
X12693872Y-13887674D01*
X12693872Y-13887674D02*
X12712920Y-13897198D01*
X12712920Y-13897198D02*
X12722444Y-13906722D01*
X12722444Y-13906722D02*
X12731967Y-13925769D01*
X12731967Y-13925769D02*
X12731967Y-13973388D01*
X12731967Y-13973388D02*
X12722444Y-13992436D01*
X12722444Y-13992436D02*
X12712920Y-14001960D01*
X12712920Y-14001960D02*
X12693872Y-14011484D01*
X12693872Y-14011484D02*
X12646253Y-14011484D01*
X12646253Y-14011484D02*
X12627206Y-14001960D01*
X12627206Y-14001960D02*
X12617682Y-13992436D01*
X12903396Y-13811484D02*
X12865301Y-13811484D01*
X12865301Y-13811484D02*
X12846253Y-13821008D01*
X12846253Y-13821008D02*
X12836729Y-13830531D01*
X12836729Y-13830531D02*
X12817682Y-13859103D01*
X12817682Y-13859103D02*
X12808158Y-13897198D01*
X12808158Y-13897198D02*
X12808158Y-13973388D01*
X12808158Y-13973388D02*
X12817682Y-13992436D01*
X12817682Y-13992436D02*
X12827206Y-14001960D01*
X12827206Y-14001960D02*
X12846253Y-14011484D01*
X12846253Y-14011484D02*
X12884348Y-14011484D01*
X12884348Y-14011484D02*
X12903396Y-14001960D01*
X12903396Y-14001960D02*
X12912920Y-13992436D01*
X12912920Y-13992436D02*
X12922444Y-13973388D01*
X12922444Y-13973388D02*
X12922444Y-13925769D01*
X12922444Y-13925769D02*
X12912920Y-13906722D01*
X12912920Y-13906722D02*
X12903396Y-13897198D01*
X12903396Y-13897198D02*
X12884348Y-13887674D01*
X12884348Y-13887674D02*
X12846253Y-13887674D01*
X12846253Y-13887674D02*
X12827206Y-13897198D01*
X12827206Y-13897198D02*
X12817682Y-13906722D01*
X12817682Y-13906722D02*
X12808158Y-13925769D01*
X12998634Y-13811484D02*
X12998634Y-13849579D01*
X13074825Y-13811484D02*
X13074825Y-13849579D01*
X13370063Y-14087674D02*
X13360539Y-14078150D01*
X13360539Y-14078150D02*
X13341491Y-14049579D01*
X13341491Y-14049579D02*
X13331968Y-14030531D01*
X13331968Y-14030531D02*
X13322444Y-14001960D01*
X13322444Y-14001960D02*
X13312920Y-13954341D01*
X13312920Y-13954341D02*
X13312920Y-13916246D01*
X13312920Y-13916246D02*
X13322444Y-13868627D01*
X13322444Y-13868627D02*
X13331968Y-13840055D01*
X13331968Y-13840055D02*
X13341491Y-13821008D01*
X13341491Y-13821008D02*
X13360539Y-13792436D01*
X13360539Y-13792436D02*
X13370063Y-13782912D01*
X13436729Y-13830531D02*
X13446253Y-13821008D01*
X13446253Y-13821008D02*
X13465301Y-13811484D01*
X13465301Y-13811484D02*
X13512920Y-13811484D01*
X13512920Y-13811484D02*
X13531968Y-13821008D01*
X13531968Y-13821008D02*
X13541491Y-13830531D01*
X13541491Y-13830531D02*
X13551015Y-13849579D01*
X13551015Y-13849579D02*
X13551015Y-13868627D01*
X13551015Y-13868627D02*
X13541491Y-13897198D01*
X13541491Y-13897198D02*
X13427206Y-14011484D01*
X13427206Y-14011484D02*
X13551015Y-14011484D01*
X13789110Y-14011484D02*
X13789110Y-13811484D01*
X13874825Y-14011484D02*
X13874825Y-13906722D01*
X13874825Y-13906722D02*
X13865301Y-13887674D01*
X13865301Y-13887674D02*
X13846253Y-13878150D01*
X13846253Y-13878150D02*
X13817682Y-13878150D01*
X13817682Y-13878150D02*
X13798634Y-13887674D01*
X13798634Y-13887674D02*
X13789110Y-13897198D01*
X13998634Y-14011484D02*
X13979587Y-14001960D01*
X13979587Y-14001960D02*
X13970063Y-13992436D01*
X13970063Y-13992436D02*
X13960539Y-13973388D01*
X13960539Y-13973388D02*
X13960539Y-13916246D01*
X13960539Y-13916246D02*
X13970063Y-13897198D01*
X13970063Y-13897198D02*
X13979587Y-13887674D01*
X13979587Y-13887674D02*
X13998634Y-13878150D01*
X13998634Y-13878150D02*
X14027206Y-13878150D01*
X14027206Y-13878150D02*
X14046253Y-13887674D01*
X14046253Y-13887674D02*
X14055777Y-13897198D01*
X14055777Y-13897198D02*
X14065301Y-13916246D01*
X14065301Y-13916246D02*
X14065301Y-13973388D01*
X14065301Y-13973388D02*
X14055777Y-13992436D01*
X14055777Y-13992436D02*
X14046253Y-14001960D01*
X14046253Y-14001960D02*
X14027206Y-14011484D01*
X14027206Y-14011484D02*
X13998634Y-14011484D01*
X14179587Y-14011484D02*
X14160539Y-14001960D01*
X14160539Y-14001960D02*
X14151015Y-13982912D01*
X14151015Y-13982912D02*
X14151015Y-13811484D01*
X14331968Y-14001960D02*
X14312920Y-14011484D01*
X14312920Y-14011484D02*
X14274825Y-14011484D01*
X14274825Y-14011484D02*
X14255777Y-14001960D01*
X14255777Y-14001960D02*
X14246253Y-13982912D01*
X14246253Y-13982912D02*
X14246253Y-13906722D01*
X14246253Y-13906722D02*
X14255777Y-13887674D01*
X14255777Y-13887674D02*
X14274825Y-13878150D01*
X14274825Y-13878150D02*
X14312920Y-13878150D01*
X14312920Y-13878150D02*
X14331968Y-13887674D01*
X14331968Y-13887674D02*
X14341491Y-13906722D01*
X14341491Y-13906722D02*
X14341491Y-13925769D01*
X14341491Y-13925769D02*
X14246253Y-13944817D01*
X14417682Y-14001960D02*
X14436730Y-14011484D01*
X14436730Y-14011484D02*
X14474825Y-14011484D01*
X14474825Y-14011484D02*
X14493872Y-14001960D01*
X14493872Y-14001960D02*
X14503396Y-13982912D01*
X14503396Y-13982912D02*
X14503396Y-13973388D01*
X14503396Y-13973388D02*
X14493872Y-13954341D01*
X14493872Y-13954341D02*
X14474825Y-13944817D01*
X14474825Y-13944817D02*
X14446253Y-13944817D01*
X14446253Y-13944817D02*
X14427206Y-13935293D01*
X14427206Y-13935293D02*
X14417682Y-13916246D01*
X14417682Y-13916246D02*
X14417682Y-13906722D01*
X14417682Y-13906722D02*
X14427206Y-13887674D01*
X14427206Y-13887674D02*
X14446253Y-13878150D01*
X14446253Y-13878150D02*
X14474825Y-13878150D01*
X14474825Y-13878150D02*
X14493872Y-13887674D01*
X14570063Y-14087674D02*
X14579587Y-14078150D01*
X14579587Y-14078150D02*
X14598634Y-14049579D01*
X14598634Y-14049579D02*
X14608158Y-14030531D01*
X14608158Y-14030531D02*
X14617682Y-14001960D01*
X14617682Y-14001960D02*
X14627206Y-13954341D01*
X14627206Y-13954341D02*
X14627206Y-13916246D01*
X14627206Y-13916246D02*
X14617682Y-13868627D01*
X14617682Y-13868627D02*
X14608158Y-13840055D01*
X14608158Y-13840055D02*
X14598634Y-13821008D01*
X14598634Y-13821008D02*
X14579587Y-13792436D01*
X14579587Y-13792436D02*
X14570063Y-13782912D01*
X14931968Y-14087674D02*
X14922444Y-14078150D01*
X14922444Y-14078150D02*
X14903396Y-14049579D01*
X14903396Y-14049579D02*
X14893872Y-14030531D01*
X14893872Y-14030531D02*
X14884349Y-14001960D01*
X14884349Y-14001960D02*
X14874825Y-13954341D01*
X14874825Y-13954341D02*
X14874825Y-13916246D01*
X14874825Y-13916246D02*
X14884349Y-13868627D01*
X14884349Y-13868627D02*
X14893872Y-13840055D01*
X14893872Y-13840055D02*
X14903396Y-13821008D01*
X14903396Y-13821008D02*
X14922444Y-13792436D01*
X14922444Y-13792436D02*
X14931968Y-13782912D01*
X15008158Y-13878150D02*
X15008158Y-14011484D01*
X15008158Y-13897198D02*
X15017682Y-13887674D01*
X15017682Y-13887674D02*
X15036730Y-13878150D01*
X15036730Y-13878150D02*
X15065301Y-13878150D01*
X15065301Y-13878150D02*
X15084349Y-13887674D01*
X15084349Y-13887674D02*
X15093872Y-13906722D01*
X15093872Y-13906722D02*
X15093872Y-14011484D01*
X15217682Y-14011484D02*
X15198634Y-14001960D01*
X15198634Y-14001960D02*
X15189111Y-13992436D01*
X15189111Y-13992436D02*
X15179587Y-13973388D01*
X15179587Y-13973388D02*
X15179587Y-13916246D01*
X15179587Y-13916246D02*
X15189111Y-13897198D01*
X15189111Y-13897198D02*
X15198634Y-13887674D01*
X15198634Y-13887674D02*
X15217682Y-13878150D01*
X15217682Y-13878150D02*
X15246253Y-13878150D01*
X15246253Y-13878150D02*
X15265301Y-13887674D01*
X15265301Y-13887674D02*
X15274825Y-13897198D01*
X15274825Y-13897198D02*
X15284349Y-13916246D01*
X15284349Y-13916246D02*
X15284349Y-13973388D01*
X15284349Y-13973388D02*
X15274825Y-13992436D01*
X15274825Y-13992436D02*
X15265301Y-14001960D01*
X15265301Y-14001960D02*
X15246253Y-14011484D01*
X15246253Y-14011484D02*
X15217682Y-14011484D01*
X15341492Y-13878150D02*
X15417682Y-13878150D01*
X15370063Y-13811484D02*
X15370063Y-13982912D01*
X15370063Y-13982912D02*
X15379587Y-14001960D01*
X15379587Y-14001960D02*
X15398634Y-14011484D01*
X15398634Y-14011484D02*
X15417682Y-14011484D01*
X15636730Y-13878150D02*
X15636730Y-14078150D01*
X15636730Y-13887674D02*
X15655777Y-13878150D01*
X15655777Y-13878150D02*
X15693873Y-13878150D01*
X15693873Y-13878150D02*
X15712920Y-13887674D01*
X15712920Y-13887674D02*
X15722444Y-13897198D01*
X15722444Y-13897198D02*
X15731968Y-13916246D01*
X15731968Y-13916246D02*
X15731968Y-13973388D01*
X15731968Y-13973388D02*
X15722444Y-13992436D01*
X15722444Y-13992436D02*
X15712920Y-14001960D01*
X15712920Y-14001960D02*
X15693873Y-14011484D01*
X15693873Y-14011484D02*
X15655777Y-14011484D01*
X15655777Y-14011484D02*
X15636730Y-14001960D01*
X15846253Y-14011484D02*
X15827206Y-14001960D01*
X15827206Y-14001960D02*
X15817682Y-13982912D01*
X15817682Y-13982912D02*
X15817682Y-13811484D01*
X16008158Y-14011484D02*
X16008158Y-13906722D01*
X16008158Y-13906722D02*
X15998634Y-13887674D01*
X15998634Y-13887674D02*
X15979587Y-13878150D01*
X15979587Y-13878150D02*
X15941492Y-13878150D01*
X15941492Y-13878150D02*
X15922444Y-13887674D01*
X16008158Y-14001960D02*
X15989111Y-14011484D01*
X15989111Y-14011484D02*
X15941492Y-14011484D01*
X15941492Y-14011484D02*
X15922444Y-14001960D01*
X15922444Y-14001960D02*
X15912920Y-13982912D01*
X15912920Y-13982912D02*
X15912920Y-13963865D01*
X15912920Y-13963865D02*
X15922444Y-13944817D01*
X15922444Y-13944817D02*
X15941492Y-13935293D01*
X15941492Y-13935293D02*
X15989111Y-13935293D01*
X15989111Y-13935293D02*
X16008158Y-13925769D01*
X16074825Y-13878150D02*
X16151015Y-13878150D01*
X16103396Y-13811484D02*
X16103396Y-13982912D01*
X16103396Y-13982912D02*
X16112920Y-14001960D01*
X16112920Y-14001960D02*
X16131968Y-14011484D01*
X16131968Y-14011484D02*
X16151015Y-14011484D01*
X16293873Y-14001960D02*
X16274825Y-14011484D01*
X16274825Y-14011484D02*
X16236730Y-14011484D01*
X16236730Y-14011484D02*
X16217682Y-14001960D01*
X16217682Y-14001960D02*
X16208158Y-13982912D01*
X16208158Y-13982912D02*
X16208158Y-13906722D01*
X16208158Y-13906722D02*
X16217682Y-13887674D01*
X16217682Y-13887674D02*
X16236730Y-13878150D01*
X16236730Y-13878150D02*
X16274825Y-13878150D01*
X16274825Y-13878150D02*
X16293873Y-13887674D01*
X16293873Y-13887674D02*
X16303396Y-13906722D01*
X16303396Y-13906722D02*
X16303396Y-13925769D01*
X16303396Y-13925769D02*
X16208158Y-13944817D01*
X16474825Y-14011484D02*
X16474825Y-13811484D01*
X16474825Y-14001960D02*
X16455777Y-14011484D01*
X16455777Y-14011484D02*
X16417682Y-14011484D01*
X16417682Y-14011484D02*
X16398634Y-14001960D01*
X16398634Y-14001960D02*
X16389111Y-13992436D01*
X16389111Y-13992436D02*
X16379587Y-13973388D01*
X16379587Y-13973388D02*
X16379587Y-13916246D01*
X16379587Y-13916246D02*
X16389111Y-13897198D01*
X16389111Y-13897198D02*
X16398634Y-13887674D01*
X16398634Y-13887674D02*
X16417682Y-13878150D01*
X16417682Y-13878150D02*
X16455777Y-13878150D01*
X16455777Y-13878150D02*
X16474825Y-13887674D01*
X16551015Y-14087674D02*
X16560539Y-14078150D01*
X16560539Y-14078150D02*
X16579587Y-14049579D01*
X16579587Y-14049579D02*
X16589111Y-14030531D01*
X16589111Y-14030531D02*
X16598634Y-14001960D01*
X16598634Y-14001960D02*
X16608158Y-13954341D01*
X16608158Y-13954341D02*
X16608158Y-13916246D01*
X16608158Y-13916246D02*
X16598634Y-13868627D01*
X16598634Y-13868627D02*
X16589111Y-13840055D01*
X16589111Y-13840055D02*
X16579587Y-13821008D01*
X16579587Y-13821008D02*
X16560539Y-13792436D01*
X16560539Y-13792436D02*
X16551015Y-13782912D01*
M02*
